<?xml version="1.0" encoding="UTF-8" standalone="no"?>
<!-- Created with Inkscape (http://www.inkscape.org/) -->

<svg
   xmlns:dc="http://purl.org/dc/elements/1.1/"
   xmlns:cc="http://creativecommons.org/ns#"
   xmlns:rdf="http://www.w3.org/1999/02/22-rdf-syntax-ns#"
   xmlns:svg="http://www.w3.org/2000/svg"
   xmlns="http://www.w3.org/2000/svg"
   xmlns:sodipodi="http://sodipodi.sourceforge.net/DTD/sodipodi-0.dtd"
   xmlns:inkscape="http://www.inkscape.org/namespaces/inkscape"
   version="1.1"
   id="svg3680"
   width="1080"
   height="1080"
   viewBox="0 0 1080 1080"
   sodipodi:docname="ARTEMIS Logo.svg"
   inkscape:version="0.92.0 r15299">
  <metadata
     id="metadata3686">
    <rdf:RDF>
      <cc:Work
         rdf:about="">
        <dc:format>image/svg+xml</dc:format>
        <dc:type
           rdf:resource="http://purl.org/dc/dcmitype/StillImage" />
        <dc:title></dc:title>
      </cc:Work>
    </rdf:RDF>
  </metadata>
  <defs
     id="defs3684" />
  <sodipodi:namedview
     pagecolor="#ffffff"
     bordercolor="#666666"
     borderopacity="1"
     objecttolerance="10"
     gridtolerance="10"
     guidetolerance="10"
     inkscape:pageopacity="0"
     inkscape:pageshadow="2"
     inkscape:window-width="958"
     inkscape:window-height="991"
     id="namedview3682"
     showgrid="false"
     fit-margin-top="0"
     fit-margin-left="0"
     fit-margin-right="0"
     fit-margin-bottom="0"
     inkscape:zoom="0.19838274"
     inkscape:cx="789.52399"
     inkscape:cy="306.92943"
     inkscape:window-x="952"
     inkscape:window-y="0"
     inkscape:window-maximized="0"
     inkscape:current-layer="svg3680" />
  <g
     id="g7253"
     transform="matrix(17.277197,0,0,17.277197,-2537.8746,-11628.872)">
    <path
       id="path5030"
       d="m 175.97796,684.81847 -7.31686,1.95638 v 9.44489 l 7.31686,4.2332 z m 4.42775,0 v 15.63447 l 7.31621,-4.2332 v -9.44489 z m -13.53885,11.12597 -7.31622,1.95637 v 9.4449 l 7.31622,4.23319 z m 22.64931,0 v 15.63446 l 7.31685,-4.23319 v -9.4449 z m -11.31798,8.50899 -6.78723,3.95852 v 6.53418 l -6.1546,4.03037 7.252,3.93119 h 11.45214 l 7.05998,-4.07615 -6.2595,-3.82946 v -6.73954 z"
       style="fill:#e5afe5;fill-opacity:1;stroke:none;stroke-width:0.32553256px;stroke-linecap:butt;stroke-linejoin:miter;stroke-opacity:1"
       inkscape:connector-curvature="0" />
    <path
       id="path4891"
       d="m 178.13906,674.8465 -0.28103,0.16403 -0.0471,0.028 c -8.42363,4.91851 -16.8468,9.8378 -25.27073,14.7558 v 29.23816 c 8.53531,4.9282 17.07066,9.85635 25.60644,14.78376 l 12.87379,-7.43257 c 4.24421,-2.45041 8.48851,-4.90066 12.73265,-7.35119 v -29.23816 c -8.53819,-4.98231 -17.07649,-9.96443 -25.61407,-14.94779 z m 6.5e-4,3.01499 c 7.66973,4.47607 15.33945,8.95214 23.00917,13.42822 v 26.2397 c -3.37616,1.9491 -6.75221,3.8984 -10.12838,5.8475 v -4.54537 l -7.05999,4.07615 h -11.45215 l -7.252,-3.93119 v 4.39088 c -3.37066,-1.94593 -6.7412,-3.89205 -10.11185,-5.83797 v -26.24034 c 7.66506,-4.47586 15.33012,-8.95172 22.99518,-13.42758 z m -9.47859,8.91336 v 9.44489 l 7.31685,4.2332 -0.003,-9.44299 z m 19.06082,0 -7.31368,4.2351 -0.003,9.44299 7.31622,-4.2332 z m -28.17128,11.12596 v 9.4449 l 7.31622,4.23319 -0.002,-9.44235 z m 37.28238,0 -7.31431,4.23574 -0.003,9.44235 7.31685,-4.23319 z"
       style="color:#000000;font-style:normal;font-variant:normal;font-weight:normal;font-stretch:normal;font-size:medium;line-height:normal;font-family:sans-serif;font-variant-ligatures:normal;font-variant-position:normal;font-variant-caps:normal;font-variant-numeric:normal;font-variant-alternates:normal;font-feature-settings:normal;text-indent:0;text-align:start;text-decoration:none;text-decoration-line:none;text-decoration-style:solid;text-decoration-color:#000000;letter-spacing:normal;word-spacing:normal;text-transform:none;writing-mode:lr-tb;direction:ltr;text-orientation:mixed;dominant-baseline:auto;baseline-shift:baseline;text-anchor:start;white-space:normal;shape-padding:0;clip-rule:nonzero;display:inline;overflow:visible;visibility:visible;opacity:1;isolation:auto;mix-blend-mode:normal;color-interpolation:sRGB;color-interpolation-filters:linearRGB;solid-color:#000000;solid-opacity:1;vector-effect:none;fill:#714a7e;fill-opacity:1;fill-rule:nonzero;stroke:none;stroke-width:1.30213022;stroke-linecap:butt;stroke-linejoin:miter;stroke-miterlimit:4;stroke-dasharray:none;stroke-dashoffset:0;stroke-opacity:1;color-rendering:auto;image-rendering:auto;shape-rendering:auto;text-rendering:auto;enable-background:accumulate"
       inkscape:connector-curvature="0" />
  </g>
</svg>
