<?xml version="1.0" encoding="UTF-8" standalone="no"?>
<!-- Created with Inkscape (http://www.inkscape.org/) -->

<svg
   xmlns:dc="http://purl.org/dc/elements/1.1/"
   xmlns:cc="http://creativecommons.org/ns#"
   xmlns:rdf="http://www.w3.org/1999/02/22-rdf-syntax-ns#"
   xmlns:svg="http://www.w3.org/2000/svg"
   xmlns="http://www.w3.org/2000/svg"
   xmlns:sodipodi="http://sodipodi.sourceforge.net/DTD/sodipodi-0.dtd"
   xmlns:inkscape="http://www.inkscape.org/namespaces/inkscape"
   version="1.1"
   id="svg3680"
   width="1080"
   height="1080"
   viewBox="0 0 1080 1080"
   sodipodi:docname="HADES Logo.svg"
   inkscape:version="0.92.0 r15299">
  <metadata
     id="metadata3686">
    <rdf:RDF>
      <cc:Work
         rdf:about="">
        <dc:format>image/svg+xml</dc:format>
        <dc:type
           rdf:resource="http://purl.org/dc/dcmitype/StillImage" />
        <dc:title></dc:title>
      </cc:Work>
    </rdf:RDF>
  </metadata>
  <defs
     id="defs3684" />
  <sodipodi:namedview
     pagecolor="#ffffff"
     bordercolor="#666666"
     borderopacity="1"
     objecttolerance="10"
     gridtolerance="10"
     guidetolerance="10"
     inkscape:pageopacity="0"
     inkscape:pageshadow="2"
     inkscape:window-width="958"
     inkscape:window-height="991"
     id="namedview3682"
     showgrid="false"
     fit-margin-top="0"
     fit-margin-left="0"
     fit-margin-right="0"
     fit-margin-bottom="0"
     inkscape:zoom="0.19838274"
     inkscape:cx="789.52399"
     inkscape:cy="306.92943"
     inkscape:window-x="952"
     inkscape:window-y="0"
     inkscape:window-maximized="0"
     inkscape:current-layer="svg3680" />
  <g
     id="g7266"
     transform="matrix(17.208357,0,0,17.208357,-2525.6116,-15906.089)">
    <path
       id="path4824"
       d="m 178.13914,925.50079 -0.28212,0.16878 -0.0473,0.0281 c -8.45738,5.03825 -16.91425,10.07745 -25.37192,15.11519 v 29.9499 c 8.56951,5.04819 17.13912,10.09635 25.70908,15.14373 8.56996,-5.04738 17.13916,-10.09554 25.70867,-15.14373 v -29.9499 c -8.57239,-5.10362 -17.14464,-10.20741 -25.71642,-15.3121 z m 4.2e-4,3.08867 c 7.70045,4.58506 15.40104,9.17008 23.10148,13.75513 v 26.87875 c -7.69811,4.53426 -15.39605,9.0684 -23.09415,13.60265 -7.69811,-4.53425 -15.39644,-9.06839 -23.09455,-13.60265 v -26.87956 c 7.69577,-4.58484 15.39145,-9.16948 23.08721,-13.75432 z m 0.23442,5.17647 -19.89986,11.51935 0.0836,21.59668 19.69684,11.37176 19.25368,-10.91677 0.20099,-22.41493 z"
       style="color:#000000;font-style:normal;font-variant:normal;font-weight:normal;font-stretch:normal;font-size:medium;line-height:normal;font-family:sans-serif;font-variant-ligatures:normal;font-variant-position:normal;font-variant-caps:normal;font-variant-numeric:normal;font-variant-alternates:normal;font-feature-settings:normal;text-indent:0;text-align:start;text-decoration:none;text-decoration-line:none;text-decoration-style:solid;text-decoration-color:#000000;letter-spacing:normal;word-spacing:normal;text-transform:none;writing-mode:lr-tb;direction:ltr;text-orientation:mixed;dominant-baseline:auto;baseline-shift:baseline;text-anchor:start;white-space:normal;shape-padding:0;clip-rule:nonzero;display:inline;overflow:visible;visibility:visible;opacity:1;isolation:auto;mix-blend-mode:normal;color-interpolation:sRGB;color-interpolation-filters:linearRGB;solid-color:#000000;solid-opacity:1;vector-effect:none;fill:#625d7c;fill-opacity:1;fill-rule:nonzero;stroke:none;stroke-width:1.32052374;stroke-linecap:butt;stroke-linejoin:miter;stroke-miterlimit:4;stroke-dasharray:none;stroke-dashoffset:0;stroke-opacity:1;color-rendering:auto;image-rendering:auto;shape-rendering:auto;text-rendering:auto;enable-background:accumulate"
       inkscape:connector-curvature="0" />
    <path
       id="path4866"
       d="m 178.37397,933.76553 -19.89986,11.51975 0.084,21.59668 13.88641,8.02298 v -7.98343 l -6.4183,-3.53632 0.0387,-12.58057 12.25197,-6.56548 11.35464,6.17165 0.2018,13.00946 -6.2487,3.4556 0.0571,8.29205 14.13388,-7.83054 -0.106,-22.41534 z m -0.5194,22.36396 -3.7157,2.14527 v 22.19069 c 1.33596,0.7869 2.67205,1.57365 4.00802,2.36054 1.34659,-0.79315 2.69323,-1.58614 4.03982,-2.37929 l -0.31637,-22.33746 z"
       style="fill:#d2d7ef;fill-opacity:1;stroke:none;stroke-width:0.32553256px;stroke-linecap:butt;stroke-linejoin:miter;stroke-opacity:1"
       inkscape:connector-curvature="0" />
  </g>
</svg>
